<?xml version="1.0" encoding="utf-8"?>
<!-- Generator: Adobe Illustrator 16.0.4, SVG Export Plug-In . SVG Version: 6.00 Build 0)  -->
<!DOCTYPE svg PUBLIC "-//W3C//DTD SVG 1.1//EN" "http://www.w3.org/Graphics/SVG/1.1/DTD/svg11.dtd">
<svg version="1.1" id="Layer_1" xmlns="http://www.w3.org/2000/svg" xmlns:xlink="http://www.w3.org/1999/xlink" x="0px" y="0px"
	 width="32px" height="28px" viewBox="0 0 32 28" enable-background="new 0 0 32 28" xml:space="preserve">
<path fill="#ED5564" stroke="#DB4453" stroke-miterlimit="10" d="M28.917,22.014L28.917,22.014l-7.983-7.983l7.983-7.983l0,0
	c0.085-0.085,0.147-0.186,0.188-0.294c0.109-0.291,0.046-0.633-0.188-0.868l-3.771-3.771c-0.235-0.235-0.577-0.297-0.868-0.188
	c-0.108,0.041-0.208,0.103-0.294,0.188l0,0L16,9.098L8.017,1.115l0,0C7.932,1.029,7.831,0.968,7.723,0.928
	C7.431,0.817,7.09,0.881,6.855,1.116L3.083,4.886C2.849,5.121,2.786,5.463,2.895,5.754c0.042,0.108,0.103,0.208,0.188,0.294l0,0
	l7.983,7.983l-7.983,7.983l0,0C2.998,22.1,2.937,22.2,2.895,22.308c-0.109,0.291-0.046,0.633,0.188,0.868l3.771,3.771
	c0.235,0.235,0.577,0.297,0.868,0.188c0.108-0.042,0.208-0.103,0.294-0.188l0,0L16,18.965l7.983,7.983l0,0
	c0.085,0.085,0.186,0.147,0.294,0.188c0.292,0.109,0.633,0.046,0.868-0.188l3.771-3.771c0.235-0.235,0.298-0.577,0.188-0.868
	C29.063,22.2,29.002,22.1,28.917,22.014z"/>
</svg>
